<?xml version="1.0" standalone="no"?>
<!DOCTYPE svg PUBLIC "-//W3C//DTD SVG 20010904//EN"
 "http://www.w3.org/TR/2001/REC-SVG-20010904/DTD/svg10.dtd">
<svg version="1.0" xmlns="http://www.w3.org/2000/svg"
 width="2480.000000pt" height="2480.000000pt" viewBox="0 0 2480.000000 2480.000000"
 preserveAspectRatio="xMidYMid meet">
<metadata>
Created by potrace 1.11, written by Peter Selinger 2001-2013
</metadata>
<g transform="translate(0.000000,2480.000000) scale(0.100000,-0.100000)"
fill="#000000" stroke="none">
<path d="M740 12395 l0 -4625 885 0 885 0 0 3845 0 3846 1358 -4 c1230 -3
1366 -5 1457 -20 495 -86 900 -282 1229 -597 279 -267 461 -584 538 -940 19
-91 22 -134 22 -320 0 -186 -3 -229 -22 -320 -45 -204 -116 -379 -225 -557
-293 -472 -760 -803 -1323 -937 -260 -62 -207 -59 -1527 -63 -1134 -4 -1208
-5 -1203 -21 3 -9 82 -350 176 -757 94 -407 173 -750 177 -762 l5 -23 699 0
698 0 993 -1184 993 -1185 1107 0 1107 -1 -1104 1318 c-607 724 -1105 1320
-1107 1325 -2 4 63 36 143 71 934 404 1648 1120 1992 1996 264 672 272 1475
20 2149 -250 673 -748 1280 -1394 1704 -523 343 -1152 575 -1769 651 -276 34
-402 36 -2607 36 l-2203 0 0 -4625z"/>
<path d="M10290 12210 l0 -4440 850 0 850 0 0 1103 1 1102 146 170 c420 488
5280 6261 5462 6488 13 16 -47 17 -1047 17 l-1060 0 -1751 -2070 -1751 -2071
0 2071 0 2070 -850 0 -850 0 0 -4440z"/>
<path d="M20575 14478 c-6 -18 -305 -946 -465 -1443 -72 -225 -260 -804 -416
-1286 -156 -481 -284 -878 -284 -882 0 -4 173 -7 385 -7 l384 0 20 63 c10 34
152 472 314 972 163 501 416 1284 563 1740 146 457 269 836 271 843 4 9 -76
12 -381 12 -300 0 -388 -3 -391 -12z"/>
<path d="M18960 13834 c-184 -58 -785 -244 -1335 -414 -550 -170 -1075 -332
-1167 -361 l-168 -52 0 -374 c0 -205 2 -373 5 -373 2 0 293 -89 647 -199 354
-109 1026 -317 1493 -461 468 -145 856 -265 863 -268 10 -3 12 72 10 369 l-3
373 -380 117 c-280 86 -1318 407 -1430 443 -14 4 162 59 1355 423 l455 139 3
372 c1 205 -1 372 -5 371 -5 0 -159 -48 -343 -105z"/>
<path d="M21472 13560 l3 -372 445 -137 c814 -251 1370 -424 1367 -427 -3 -3
-998 -312 -1462 -454 l-350 -107 -3 -372 -2 -372 22 7 c38 12 186 57 1568 483
734 227 1356 419 1383 427 l47 16 -2 371 -3 372 -180 56 c-425 135 -1168 366
-1960 610 -467 144 -856 264 -863 266 -10 4 -12 -71 -10 -367z"/>
<path d="M13881 11614 c-292 -346 -531 -631 -531 -634 0 -3 609 -725 1353
-1605 l1353 -1600 1063 -3 1064 -2 -45 52 c-25 29 -867 1030 -1872 2223 -1006
1194 -1834 2176 -1841 2183 -10 11 -109 -100 -544 -614z"/>
</g>
</svg>
