<svg id="b7f539d7-7723-4dac-bd24-f8d5b0873b4a" data-name="last black bord" xmlns="http://www.w3.org/2000/svg" viewBox="0 0 298.14 209.06"><defs><style>.b53c3638-197b-4f96-a22c-87c3545309a4,.b97ed797-186d-4fe6-9f78-1efeb1e55091,.faeebc22-fd86-4419-8956-09584b859436{fill:#424242;}.ae3a3628-0abd-4c7a-ab0f-48ff88f1e81a,.f64e41e4-afa4-4272-a35f-215991b87d13{fill:#ef414c;}.b53c3638-197b-4f96-a22c-87c3545309a4{font-size:62.76px;}.b53c3638-197b-4f96-a22c-87c3545309a4,.f64e41e4-afa4-4272-a35f-215991b87d13{font-family:AzonixRegular, Azonix;}.f64e41e4-afa4-4272-a35f-215991b87d13{font-size:58.45px;}.b97ed797-186d-4fe6-9f78-1efeb1e55091,.f3035f92-1f42-49c4-9c5e-0faa898e8bd1{stroke:#424242;stroke-miterlimit:10;stroke-width:8px;}.f3035f92-1f42-49c4-9c5e-0faa898e8bd1{fill:none;}</style></defs><title>logoblack</title><path class="faeebc22-fd86-4419-8956-09584b859436" d="M309.51,159.23a37.44,37.44,0,0,1-1.71,11.37,39.69,39.69,0,0,1-4.76,10,39.25,39.25,0,0,1-16.71,14.15l21.9,29.86H286.47L266.85,197.9H253.06l-3.56-17.63h21.33a20.83,20.83,0,0,0,8.25-1.63,20.27,20.27,0,0,0,6.68-4.53,22.83,22.83,0,0,0,4.55-6.73,20.61,20.61,0,0,0,0-16.44,21.87,21.87,0,0,0-4.55-6.66,22.12,22.12,0,0,0-6.68-4.54,20.2,20.2,0,0,0-8.25-1.7H246.52v86.6H229V120.41h41.8a37.2,37.2,0,0,1,15,3.06,39.11,39.11,0,0,1,20.62,20.61A37.6,37.6,0,0,1,309.51,159.23Z" transform="translate(-166.28 -88.38)"/><path class="ae3a3628-0abd-4c7a-ab0f-48ff88f1e81a" d="M348.88,196,346,199.77v24.87h-16.8V124.49H346v46.73l34.57-46.73h20.9l-34,46.32Zm21-21.73,37.16,50.42h-20.9L359.4,188.43Z" transform="translate(-166.28 -88.38)"/><text class="b53c3638-197b-4f96-a22c-87c3545309a4" transform="translate(99.02 194.76) rotate(1.86)">&lt;</text><text class="f64e41e4-afa4-4272-a35f-215991b87d13" transform="translate(130 193.78) rotate(1.86)">/</text><text class="b53c3638-197b-4f96-a22c-87c3545309a4" transform="translate(150.04 196.41) rotate(1.86)">&gt;</text><line class="b97ed797-186d-4fe6-9f78-1efeb1e55091" x1="0.14" y1="4" x2="298" y2="14.4"/><line class="f3035f92-1f42-49c4-9c5e-0faa898e8bd1" x1="2.38" y1="166.88" x2="80.49" y2="171.69"/><line class="f3035f92-1f42-49c4-9c5e-0faa898e8bd1" x1="204.59" y1="177.68" x2="282.7" y2="182.49"/></svg>