<svg id="aa4d0b4e-3a64-49be-a6ee-4dd07171ac8b" data-name="last white bord copy" xmlns="http://www.w3.org/2000/svg" viewBox="0 0 298.14 209.06"><defs><style>.e9cc9548-f2bc-482e-ade8-37d49f08684c,.f768b4b7-8278-4636-85d3-38e8444bd87f,.ff94e5d0-a6ac-443d-ad1a-3c6c80c1a6b4{fill:#dddfe6;}.b016eca5-515f-405f-b1cf-ccb8174715e4,.b060dbaa-55ca-4a1f-a8e5-e70f770223ae{fill:#ef414c;}.e9cc9548-f2bc-482e-ade8-37d49f08684c{font-size:62.76px;}.b060dbaa-55ca-4a1f-a8e5-e70f770223ae,.e9cc9548-f2bc-482e-ade8-37d49f08684c{font-family:AzonixRegular, Azonix;}.b060dbaa-55ca-4a1f-a8e5-e70f770223ae{font-size:58.45px;}.be6dfd89-6d54-4e3a-9550-c3883de82742,.ff94e5d0-a6ac-443d-ad1a-3c6c80c1a6b4{stroke:#dddfe6;stroke-miterlimit:10;stroke-width:8px;}.be6dfd89-6d54-4e3a-9550-c3883de82742{fill:none;}</style></defs><title>logowhite</title><path class="f768b4b7-8278-4636-85d3-38e8444bd87f" d="M309.51,159.23a37.44,37.44,0,0,1-1.71,11.37,39.69,39.69,0,0,1-4.76,10,39.25,39.25,0,0,1-16.71,14.15l21.9,29.86H286.47L266.85,197.9H253.06l-3.56-17.63h21.33a20.83,20.83,0,0,0,8.25-1.63,20.27,20.27,0,0,0,6.68-4.53,22.83,22.83,0,0,0,4.55-6.73,20.61,20.61,0,0,0,0-16.44,21.87,21.87,0,0,0-4.55-6.66,22.12,22.12,0,0,0-6.68-4.54,20.2,20.2,0,0,0-8.25-1.7H246.52v86.6H229V120.41h41.8a37.2,37.2,0,0,1,15,3.06,39.11,39.11,0,0,1,20.62,20.61A37.6,37.6,0,0,1,309.51,159.23Z" transform="translate(-166.28 -88.38)"/><path class="b016eca5-515f-405f-b1cf-ccb8174715e4" d="M348.88,196,346,199.77v24.87h-16.8V124.49H346v46.73l34.57-46.73h20.9l-34,46.32Zm21-21.73,37.16,50.42h-20.9L359.4,188.43Z" transform="translate(-166.28 -88.38)"/><text class="e9cc9548-f2bc-482e-ade8-37d49f08684c" transform="translate(99.02 194.76) rotate(1.86)">&lt;</text><text class="b060dbaa-55ca-4a1f-a8e5-e70f770223ae" transform="translate(130 193.78) rotate(1.86)">/</text><text class="e9cc9548-f2bc-482e-ade8-37d49f08684c" transform="translate(150.04 196.41) rotate(1.86)">&gt;</text><line class="ff94e5d0-a6ac-443d-ad1a-3c6c80c1a6b4" x1="0.14" y1="4" x2="298" y2="14.4"/><line class="be6dfd89-6d54-4e3a-9550-c3883de82742" x1="2.38" y1="166.88" x2="80.49" y2="171.69"/><line class="be6dfd89-6d54-4e3a-9550-c3883de82742" x1="204.59" y1="177.68" x2="282.7" y2="182.49"/></svg>