<svg id="e443055c-8ea4-445b-b4e8-d9ef77d399e9" data-name="last footer bord copy 2" xmlns="http://www.w3.org/2000/svg" viewBox="0 0 298.14 209.06"><defs><style>.a2bb9542-2e8a-47d8-9b09-5dc81cec61af,.b8b3b95a-8d7d-4178-8d4c-7b66af112693{fill:#f4f5f9;}.a4efa9b3-090a-4579-98e2-0d188c5f4864,.b6faa074-4203-4a12-a9e1-0f65da2b0bae{fill:#424242;}.a2bb9542-2e8a-47d8-9b09-5dc81cec61af{font-size:62.76px;}.a2bb9542-2e8a-47d8-9b09-5dc81cec61af,.b6faa074-4203-4a12-a9e1-0f65da2b0bae{font-family:AzonixRegular, Azonix;}.b6faa074-4203-4a12-a9e1-0f65da2b0bae{font-size:58.45px;}.a5dd1821-3532-42ef-96df-30a05980211a{fill:none;stroke:#f4f5f9;stroke-miterlimit:10;stroke-width:8px;}</style></defs><title>logofooter</title><path class="b8b3b95a-8d7d-4178-8d4c-7b66af112693" d="M309.51,159.23a37.44,37.44,0,0,1-1.71,11.37,39.69,39.69,0,0,1-4.76,10,39.25,39.25,0,0,1-16.71,14.15l21.9,29.86H286.47L266.85,197.9H253.06l-3.56-17.63h21.33a20.83,20.83,0,0,0,8.25-1.63,20.27,20.27,0,0,0,6.68-4.53,22.83,22.83,0,0,0,4.55-6.73,20.61,20.61,0,0,0,0-16.44,21.87,21.87,0,0,0-4.55-6.66,22.12,22.12,0,0,0-6.68-4.54,20.2,20.2,0,0,0-8.25-1.7H246.52v86.6H229V120.41h41.8a37.2,37.2,0,0,1,15,3.06,39.11,39.11,0,0,1,20.62,20.61A37.6,37.6,0,0,1,309.51,159.23Z" transform="translate(-166.28 -88.38)"/><path class="a4efa9b3-090a-4579-98e2-0d188c5f4864" d="M348.88,196,346,199.77v24.87h-16.8V124.49H346v46.73l34.57-46.73h20.9l-34,46.32Zm21-21.73,37.16,50.42h-20.9L359.4,188.43Z" transform="translate(-166.28 -88.38)"/><text class="a2bb9542-2e8a-47d8-9b09-5dc81cec61af" transform="translate(99.02 194.76) rotate(1.86)">&lt;</text><text class="b6faa074-4203-4a12-a9e1-0f65da2b0bae" transform="translate(130 193.78) rotate(1.86)">/</text><text class="a2bb9542-2e8a-47d8-9b09-5dc81cec61af" transform="translate(150.04 196.41) rotate(1.86)">&gt;</text><line class="a5dd1821-3532-42ef-96df-30a05980211a" x1="0.14" y1="4" x2="298" y2="14.4"/><line class="a5dd1821-3532-42ef-96df-30a05980211a" x1="2.38" y1="166.88" x2="80.49" y2="171.69"/><line class="a5dd1821-3532-42ef-96df-30a05980211a" x1="204.59" y1="177.68" x2="282.7" y2="182.49"/></svg>